<?xml version="1.0" encoding="utf-8"?>
<!-- Generator: Adobe Illustrator 23.0.3, SVG Export Plug-In . SVG Version: 6.00 Build 0)  -->
<svg version="1.1" id="Layer_1" xmlns="http://www.w3.org/2000/svg" xmlns:xlink="http://www.w3.org/1999/xlink" x="0px" y="0px"
	 viewBox="0 0 216 72" style="enable-background:new 0 0 216 72;" xml:space="preserve">
<style type="text/css">
	.st0{fill:#009F7A;}
</style>
<g>
	<g>
		<path class="st0" d="M26.2,26.8c0,3.2,2.6,5.7,5.7,5.7c3.2,0,5.7-2.6,5.7-5.7c0-3.2-2.6-5.7-5.7-5.7
			C28.8,21.1,26.2,23.7,26.2,26.8z"/>
		<path class="st0" d="M57.3,23.3c0,0-6.3,0.5-16.9,7.7c-5.8,3.9-8.7,7.4-8.7,7.4s-4.1-4.8-9-8l-4.2,5.5c0,0,3.5,2.3,7.2,5.6
			c3.5,3.2,6,6.5,6,6.5s3.1-6.1,9.5-12.3c2.3-2.2,4.6-4.1,6.9-5.7c-0.2,7.8-1.9,19.4-16.4,25.5C15.4,48.5,15.4,34.5,15.4,27v-3.4h0
			c0-1.8,0.5-3.1,1.3-4c1-1.1,2.9-1.9,5.6-2.4c6.1-1.2,13.5-1.2,18.8,0c5.5,1.3,6.8,3.5,7,5.9c1.2-0.3,2.2-0.6,3.2-0.9
			c-0.3-1.9-1.1-3.6-2.5-4.9c-1.6-1.5-3.9-2.6-7-3.3c-5.7-1.3-13.7-1.3-20.2,0c-3.5,0.7-5.8,1.8-7.4,3.4c-1.5,1.5-2.2,3.5-2.2,6.3h0
			V27c0,4.9,0.2,10.6,2.5,16.3c1.3,3.2,3.3,6.1,5.7,8.6c2.8,2.8,6.5,5.1,10.8,6.9l0.6,0.2l0.6-0.2c4.3-1.7,8-4,10.8-6.9
			c2.5-2.4,4.4-5.3,5.7-8.6c2.2-5.4,2.5-10.9,2.5-15.6c3.8-2.3,6.5-3.5,6.5-3.5L57.3,23.3z"/>
	</g>
	<g>
		<path d="M64.9,35h-1.6v-2.5H65v-3.7H68v3.7h2.9V35H68V40c0,2.1,1.6,2.4,2.5,2.4c0.3,0,0.6,0,0.6,0v2.8c0,0-0.4,0.1-1,0.1
			c-1.8,0-5.3-0.5-5.3-4.8L64.9,35L64.9,35z"/>
		<path d="M79.4,32c3.9,0,7,2.8,7,6.7c0,3.9-3.1,6.7-7,6.7c-3.9,0-7-2.7-7-6.7C72.4,34.8,75.5,32,79.4,32z M79.4,42.6
			c2,0,3.8-1.6,3.8-4c0-2.3-1.7-4-3.8-4c-2.1,0-3.8,1.6-3.8,4C75.6,41,77.3,42.6,79.4,42.6z"/>
		<path d="M88.6,27.3h3.2v9.5h1.6l3.1-4.5h3.5l-4,5.7v0l4.5,7h-3.6l-3.4-5.6h-1.6V45h-3.2L88.6,27.3L88.6,27.3z"/>
		<path d="M107.3,32c3.7,0,5.6,2.7,5.6,6c0,0.4-0.1,1.2-0.1,1.2h-8.8c0.2,2.2,1.9,3.4,3.8,3.4c2,0,3.7-1.4,3.7-1.4l1.2,2.3
			c0,0-1.9,1.8-5.1,1.8c-4.2,0-6.8-3-6.8-6.7C100.8,34.8,103.5,32,107.3,32z M109.7,37.1c-0.1-1.7-1.1-2.6-2.5-2.6
			c-1.6,0-2.7,1-3,2.6H109.7z"/>
		<path d="M115.2,32.3h3v1.5c0,0.5,0,0.9,0,0.9h0c0.5-1.1,1.9-2.6,4.5-2.6c2.8,0,4.4,1.5,4.4,4.8V45H124v-7.5c0-1.5-0.4-2.6-2-2.6
			c-1.7,0-2.9,1.1-3.4,2.6c-0.2,0.5-0.2,1.1-0.2,1.7V45h-3.2V32.3z"/>
		<path d="M136.1,32.3c3.6,0,6.5,2.8,6.5,6.5c0,3.7-2.9,6.6-6.5,6.6c-3.6,0-6.5-2.9-6.5-6.6C129.6,35.1,132.5,32.3,136.1,32.3z
			 M136.1,44.3c3,0,5.4-2.4,5.4-5.6c0-3.1-2.4-5.4-5.4-5.4c-3,0-5.4,2.3-5.4,5.4C130.7,41.9,133.1,44.3,136.1,44.3z"/>
		<path d="M146.1,33.6h-1.6v-0.9h1.6v-0.6c0-4.1,2.7-4.6,3.9-4.6c0.4,0,0.6,0,0.6,0v1c0,0-0.2-0.1-0.6-0.1c-1,0-3,0.4-3,3.6v0.6h3.4
			v0.9h-3.4V45h-1V33.6L146.1,33.6z"/>
		<path d="M154.3,35h-1.6v-2.5h1.7v-3.7h3.1v3.7h2.9V35h-2.9V40c0,2.1,1.6,2.4,2.5,2.4c0.3,0,0.6,0,0.6,0v2.8c0,0-0.4,0.1-1,0.1
			c-1.8,0-5.3-0.5-5.3-4.8L154.3,35L154.3,35z"/>
		<path d="M162.8,32.3h3v2.2c0,0.5,0,0.9,0,0.9h0c0.6-1.8,2.1-3.3,4-3.3c0.3,0,0.6,0,0.6,0v3.1c0,0-0.3,0-0.7,0
			c-1.3,0-2.9,0.8-3.5,2.7c-0.2,0.6-0.3,1.3-0.3,2.1v5h-3.2V32.3z"/>
		<path d="M172,32.3h3.2v7.5c0,1.5,0.4,2.6,2,2.6c2.3,0,3.6-2,3.6-4.3v-5.8h3.2V45h-3v-1.4c0-0.5,0-0.9,0-0.9h0
			c-0.6,1.3-2.2,2.6-4.4,2.6c-2.7,0-4.4-1.4-4.4-4.8V32.3z"/>
		<path d="M187.4,41.2c0,0,1.4,1.4,3.5,1.4c0.9,0,1.7-0.4,1.7-1.1c0-1.9-6.2-1.6-6.2-5.7c0-2.4,2.1-3.7,4.9-3.7
			c2.9,0,4.3,1.4,4.3,1.4l-1.2,2.3c0,0-1.2-1.1-3.1-1.1c-0.8,0-1.6,0.3-1.6,1.1c0,1.8,6.2,1.6,6.2,5.7c0,2.1-1.8,3.8-4.9,3.8
			c-3.2,0-4.9-1.9-4.9-1.9L187.4,41.2z"/>
		<path d="M198.4,35h-1.6v-2.5h1.7v-3.7h3.1v3.7h2.9V35h-2.9V40c0,2.1,1.6,2.4,2.5,2.4c0.3,0,0.6-0.1,0.6-0.1v2.8c0,0-0.4,0.1-1,0.1
			c-1.8,0-5.3-0.5-5.3-4.8L198.4,35L198.4,35z"/>
	</g>
</g>
<g>
	<path d="M207.4,30.3c0,0.8-0.6,1.4-1.5,1.4c-0.8,0-1.5-0.6-1.5-1.4c0-0.8,0.6-1.4,1.5-1.4C206.8,28.8,207.4,29.5,207.4,30.3z
		 M204.9,30.3c0,0.6,0.5,1.1,1.1,1.1c0.6,0,1.1-0.5,1.1-1.1c0-0.6-0.5-1.1-1.1-1.1C205.3,29.1,204.9,29.6,204.9,30.3z M205.7,31
		h-0.3v-1.4c0.1,0,0.3,0,0.5,0c0.3,0,0.4,0,0.5,0.1c0.1,0.1,0.1,0.2,0.1,0.3c0,0.2-0.1,0.3-0.3,0.3v0c0.1,0.1,0.2,0.2,0.3,0.3
		c0,0.2,0.1,0.3,0.1,0.4h-0.4c0-0.1-0.1-0.2-0.1-0.3c0-0.2-0.1-0.2-0.3-0.2h-0.2V31z M205.7,30.2h0.2c0.2,0,0.3-0.1,0.3-0.2
		c0-0.1-0.1-0.2-0.3-0.2c-0.1,0-0.1,0-0.2,0V30.2z"/>
</g>
</svg>
